<?xml version="1.0" encoding="UTF-8" standalone="no"?>
<!-- Created with Inkscape (http://www.inkscape.org/) -->

<svg
   xmlns:dc="http://purl.org/dc/elements/1.1/"
   xmlns:cc="http://creativecommons.org/ns#"
   xmlns:rdf="http://www.w3.org/1999/02/22-rdf-syntax-ns#"
   xmlns:svg="http://www.w3.org/2000/svg"
   xmlns="http://www.w3.org/2000/svg"
   xmlns:sodipodi="http://sodipodi.sourceforge.net/DTD/sodipodi-0.dtd"
   xmlns:inkscape="http://www.inkscape.org/namespaces/inkscape"
   width="210mm"
   height="297mm"
   viewBox="0 0 210 297"
   version="1.1"
   id="svg8"
   inkscape:version="0.92.4 (5da689c313, 2019-01-14)"
   sodipodi:docname="RobinAKaastrup-Illustrasjon.svg">
  <defs
     id="defs2" />
  <sodipodi:namedview
     id="base"
     pagecolor="#ffffff"
     bordercolor="#666666"
     borderopacity="1.0"
     inkscape:pageopacity="0.0"
     inkscape:pageshadow="2"
     inkscape:zoom="0.9899495"
     inkscape:cx="360.38983"
     inkscape:cy="778.66743"
     inkscape:document-units="mm"
     inkscape:current-layer="layer1"
     showgrid="false"
     inkscape:window-width="1920"
     inkscape:window-height="1027"
     inkscape:window-x="-8"
     inkscape:window-y="-8"
     inkscape:window-maximized="1" />
  <metadata
     id="metadata5">
    <rdf:RDF>
      <cc:Work
         rdf:about="">
        <dc:format>image/svg+xml</dc:format>
        <dc:type
           rdf:resource="http://purl.org/dc/dcmitype/StillImage" />
        <dc:title />
      </cc:Work>
    </rdf:RDF>
  </metadata>
  <g
     inkscape:label="Layer 1"
     inkscape:groupmode="layer"
     id="layer1">
    <g
       aria-label="ROBIN"
       style="font-style:normal;font-variant:normal;font-weight:normal;font-stretch:normal;font-size:10.58333302px;line-height:1.25;font-family:SimSun-ExtB;-inkscape-font-specification:'SimSun-ExtB, Normal';font-variant-ligatures:normal;font-variant-caps:normal;font-variant-numeric:normal;font-feature-settings:normal;text-align:start;letter-spacing:0px;word-spacing:0px;writing-mode:lr-tb;text-anchor:start;fill:#000000;fill-opacity:1;stroke:none;stroke-width:0.26458332"
       id="text1317"
       transform="matrix(4.1685419,0,0,4.1685419,79.952857,8.4096545)">
      <path
         d="m 4.9807304,1.5008639 q 0.5374349,0.4134115 0.5374349,1.2402344 0,0.8268228 -0.4547526,1.2815754 -0.4547526,0.4547526 -1.0335286,0.5374349 l 1.2402343,3.0592447 q 0.082682,0.1653646 0.1653646,0.2480469 0.1240234,0.041341 0.2480469,0.041341 h 0.2480468 v 0.248047 H 4.7740247 L 3.4097669,4.6014498 H 2.4589206 v 2.9765624 q 0,0.1653646 0.082682,0.2480468 0.1240234,0.082682 0.289388,0.082682 H 3.0790378 V 8.1567882 H 1.1773451 V 7.9087413 H 1.425392 q 0.2067057,0 0.289388,-0.082682 0.082682,-0.082682 0.082682,-0.2480468 v -5.911784 q 0,-0.1653646 -0.082682,-0.2480469 Q 1.632098,1.3354996 1.425392,1.3354996 H 1.1773451 V 1.0874525 h 2.3564452 q 0.9508464,0 1.4469401,0.4134114 z M 2.4589206,1.6662285 v 2.6871744 h 0.9095052 q 0.6201171,0 1.0335286,-0.3720703 0.4134114,-0.3720703 0.4134114,-1.1575521 0,-0.7027994 -0.3720703,-1.0748697 Q 4.0712252,1.3354993 3.2857435,1.3354993 H 2.8309909 q -0.1653646,0 -0.289388,0.082682 -0.082682,0.082682 -0.082682,0.2480472 z"
         style="font-style:normal;font-variant:normal;font-weight:normal;font-stretch:normal;font-size:10.58333302px;font-family:SimSun-ExtB;-inkscape-font-specification:'SimSun-ExtB, Normal';font-variant-ligatures:normal;font-variant-caps:normal;font-variant-numeric:normal;font-feature-settings:normal;text-align:start;writing-mode:lr-tb;text-anchor:start;stroke-width:0.26458332"
         id="path1392"
         inkscape:connector-curvature="0" />
      <path
         d="M 7.709246,2.1209811 Q 7.2958345,2.947804 7.2958345,4.6014498 q 0,1.7776692 0.4134115,2.6044921 0.4547525,0.7854817 1.1162109,0.7854817 0.7027994,0 1.1162109,-0.7441406 0.4134112,-0.7854817 0.4134112,-2.6458332 0,-1.4882812 -0.3720701,-2.3977864 -0.3307292,-0.9095052 -1.157552,-0.9095052 -0.7027995,0 -1.1162109,0.8268229 z m 2.811198,-0.041341 q 0.620117,1.0335287 0.620117,2.5218099 0,1.6949869 -0.661458,2.6871744 -0.6614587,0.9508463 -1.6536461,0.9508463 -0.9508464,0 -1.6536458,-0.9921875 Q 6.5103528,6.2550957 6.5103528,4.60145 q 0,-1.6123047 0.6201171,-2.6044921 0.6614583,-0.9921875 1.694987,-0.9921875 1.0748697,0 1.6949871,1.0748697 z"
         style="font-style:normal;font-variant:normal;font-weight:normal;font-stretch:normal;font-size:10.58333302px;font-family:SimSun-ExtB;-inkscape-font-specification:'SimSun-ExtB, Normal';font-variant-ligatures:normal;font-variant-caps:normal;font-variant-numeric:normal;font-feature-settings:normal;text-align:start;writing-mode:lr-tb;text-anchor:start;stroke-width:0.26458332"
         id="path1394"
         inkscape:connector-curvature="0" />
      <path
         d="M 14.199806,8.1567882 H 11.595314 V 7.9087413 h 0.330729 q 0.206705,0 0.289388,-0.082682 0.08268,-0.082682 0.08268,-0.2480468 v -5.911784 q 0,-0.1653646 -0.08268,-0.2480469 -0.08268,-0.082682 -0.289388,-0.082682 H 11.677996 V 1.0874525 h 2.397786 q 0.992188,0 1.44694,0.4134114 0.496094,0.3720703 0.496094,1.1988932 0,0.578776 -0.248047,0.9508463 -0.248047,0.3720703 -1.033528,0.6614583 0.950846,0.2893881 1.281575,0.8268229 0.330729,0.5374349 0.330729,1.1988932 0,0.8268229 -0.578776,1.3229167 -0.578776,0.4960937 -1.570963,0.4960937 z M 13.331642,7.9087413 h 0.74414 q 0.7028,0 1.07487,-0.4134114 0.413411,-0.4547526 0.413411,-1.2402344 0,-0.9095051 -0.413411,-1.3229166 -0.413411,-0.4547526 -1.240234,-0.4547526 h -0.950847 v 3.1005859 q 0,0.1653646 0.08268,0.2480468 0.124023,0.082682 0.289388,0.082682 z m 1.570963,-4.0514321 q 0.413412,-0.3720703 0.413412,-1.1575521 0,-0.7441406 -0.413412,-1.0335286 -0.413411,-0.3307292 -1.07487,-0.3307292 h -0.496093 q -0.165365,0 -0.289388,0.082682 -0.08268,0.082682 -0.08268,0.2480469 v 2.563151 h 1.07487 q 0.454753,0 0.868164,-0.3720703 z"
         style="font-style:normal;font-variant:normal;font-weight:normal;font-stretch:normal;font-size:10.58333302px;font-family:SimSun-ExtB;-inkscape-font-specification:'SimSun-ExtB, Normal';font-variant-ligatures:normal;font-variant-caps:normal;font-variant-numeric:normal;font-feature-settings:normal;text-align:start;writing-mode:lr-tb;text-anchor:start;stroke-width:0.26458332"
         id="path1396"
         inkscape:connector-curvature="0" />
      <path
         d="M 18.66465,1.3354993 H 17.713803 V 1.0874525 h 3.307292 v 0.2480468 h -0.950846 q -0.165365,0 -0.289388,0.082682 -0.08268,0.082682 -0.08268,0.2480469 v 5.9117837 q 0,0.1653646 0.08268,0.2480468 0.124023,0.082682 0.289388,0.082682 h 0.950846 V 8.1567882 H 17.713803 V 7.9087413 h 0.950847 q 0.206705,0 0.289388,-0.082682 0.08268,-0.082682 0.08268,-0.2480468 v -5.911784 q 0,-0.1653646 -0.08268,-0.2480469 -0.08268,-0.082682 -0.289388,-0.082682 z"
         style="font-style:normal;font-variant:normal;font-weight:normal;font-stretch:normal;font-size:10.58333302px;font-family:SimSun-ExtB;-inkscape-font-specification:'SimSun-ExtB, Normal';font-variant-ligatures:normal;font-variant-caps:normal;font-variant-numeric:normal;font-feature-settings:normal;text-align:start;writing-mode:lr-tb;text-anchor:start;stroke-width:0.26458332"
         id="path1398"
         inkscape:connector-curvature="0" />
      <path
         d="m 23.37754,1.0874525 2.811198,5.4156899 h 0.08268 V 1.6662285 q 0,-0.1653646 -0.08268,-0.2480469 -0.08268,-0.082682 -0.289388,-0.082682 H 25.56862 V 1.0874525 h 1.653646 v 0.2480468 h -0.330729 q -0.165365,0 -0.289388,0.082682 -0.08268,0.082682 -0.08268,0.2480469 v 6.49056 H 26.27142 L 23.129493,1.9969577 h -0.08268 v 5.5810545 q 0,0.1653646 0.08268,0.2480468 0.124023,0.082682 0.289388,0.082682 H 23.74961 V 8.1567882 H 22.095964 V 7.9087413 h 0.330729 q 0.206706,0 0.289388,-0.082682 0.08268,-0.082682 0.08268,-0.2480468 v -5.911784 q 0,-0.1653646 -0.08268,-0.2480469 -0.08268,-0.082682 -0.289388,-0.082682 H 22.178647 V 1.0874525 Z"
         style="font-style:normal;font-variant:normal;font-weight:normal;font-stretch:normal;font-size:10.58333302px;font-family:SimSun-ExtB;-inkscape-font-specification:'SimSun-ExtB, Normal';font-variant-ligatures:normal;font-variant-caps:normal;font-variant-numeric:normal;font-feature-settings:normal;text-align:start;writing-mode:lr-tb;text-anchor:start;stroke-width:0.26458332"
         id="path1400"
         inkscape:connector-curvature="0" />
    </g>
    <text
       xml:space="preserve"
       style="font-style:normal;font-variant:normal;font-weight:normal;font-stretch:normal;font-size:27.10574913px;line-height:1.25;font-family:NSimSun;-inkscape-font-specification:'NSimSun, Normal';font-variant-ligatures:normal;font-variant-caps:normal;font-variant-numeric:normal;font-feature-settings:normal;text-align:start;letter-spacing:0px;word-spacing:0px;writing-mode:lr-tb;text-anchor:start;fill:#000000;fill-opacity:1;stroke:none;stroke-width:0.67764372"
       x="84.318779"
       y="62.592285"
       id="text1321"><tspan
         sodipodi:role="line"
         id="tspan1319"
         x="84.318779"
         y="62.592285"
         style="font-style:normal;font-variant:normal;font-weight:normal;font-stretch:normal;font-size:27.10574913px;font-family:NSimSun;-inkscape-font-specification:'NSimSun, Normal';font-variant-ligatures:normal;font-variant-caps:normal;font-variant-numeric:normal;font-feature-settings:normal;text-align:start;writing-mode:lr-tb;text-anchor:start;fill:#000000;fill-opacity:1;stroke-width:0.67764372">KAASTRUP</tspan></text>
    <path
       style="fill:none;fill-opacity:1;stroke:#000000;stroke-width:0.73682642;stroke-linejoin:round;stroke-miterlimit:4;stroke-dasharray:none;stroke-dashoffset:0;stroke-opacity:1"
       d="M 18.475039,62.336383 38.378326,50.147841 V 25.447512 L 18.475039,13.257192 Z"
       id="path1424"
       inkscape:connector-curvature="0" />
    <path
       style="fill:none;fill-opacity:1;stroke:#000000;stroke-width:0.73682642;stroke-linejoin:round;stroke-miterlimit:4;stroke-dasharray:none;stroke-dashoffset:0;stroke-opacity:1"
       d="M 80.649558,62.336383 60.746271,50.147841 V 25.447512 L 80.649558,13.257193 Z"
       id="path1424-7"
       inkscape:connector-curvature="0" />
    <path
       style="fill:none;stroke:#000000;stroke-width:0.73682642;stroke-linecap:butt;stroke-linejoin:round;stroke-miterlimit:4;stroke-dasharray:none;stroke-opacity:1"
       d="m 18.475035,13.257192 62.174523,10e-7 -19.903287,12.190319 H 38.378323 Z"
       id="path866"
       inkscape:connector-curvature="0" />
    <path
       style="fill:none;stroke:#000000;stroke-width:0.73682642;stroke-linecap:butt;stroke-linejoin:miter;stroke-miterlimit:4;stroke-dasharray:none;stroke-opacity:1"
       d="M 38.378323,50.147841 H 60.746271"
       id="path868"
       inkscape:connector-curvature="0" />
    <path
       style="fill:none;stroke:#000000;stroke-width:0.73682642;stroke-linecap:butt;stroke-linejoin:round;stroke-miterlimit:4;stroke-dasharray:none;stroke-opacity:1"
       d="M 18.475039,62.336383 H 80.649561"
       id="path870"
       inkscape:connector-curvature="0" />
    <rect
       style="fill:none;fill-opacity:1;stroke:#000000;stroke-width:0.73682636;stroke-linejoin:round;stroke-miterlimit:4;stroke-dasharray:none;stroke-dashoffset:0;stroke-opacity:1"
       id="rect872"
       width="7.5931191"
       height="15.921059"
       x="45.846424"
       y="34.093159" />
    <ellipse
       style="fill:none;fill-opacity:1;stroke:#000000;stroke-width:0.73682636;stroke-linejoin:round;stroke-miterlimit:4;stroke-dasharray:none;stroke-dashoffset:0;stroke-opacity:1"
       id="path874"
       cx="52.000515"
       cy="42.237392"
       rx="0.15308709"
       ry="0.12246969" />
  </g>
</svg>
